/* XPM */
static char *_fd57a59cb894f48fe58e7b42c9d6dce2xZ4zSKlGf7ca3cu[] = {
/* columns rows colors chars-per-pixel */
"64 64 199 2 ",
"   c #151C32",
".  c #161E3D",
"X  c #1D2029",
"o  c #1B2136",
"O  c #1C233D",
"+  c #272A3A",
"@  c #242A3D",
"#  c #2C303E",
"$  c #33353C",
"%  c #36383F",
"&  c #3C3C3C",
"*  c #141E41",
"=  c #162146",
"-  c #1B2544",
";  c #15224E",
":  c #1B264C",
">  c #1E2B4E",
",  c #172657",
"<  c #192654",
"1  c #1D2B54",
"2  c #1D2C5C",
"3  c #252C44",
"4  c #292F46",
"5  c #232C4A",
"6  c #273147",
"7  c #2C3142",
"8  c #27314B",
"9  c #2D344C",
"0  c #323644",
"q  c #353943",
"w  c #3B3D44",
"e  c #32374B",
"r  c #343A4D",
"t  c #3A3E4C",
"y  c #222E53",
"u  c #212F5B",
"i  c #273151",
"p  c #2C3554",
"a  c #2E3957",
"s  c #27345C",
"d  c #2D3A5D",
"f  c #323750",
"g  c #343B54",
"h  c #3A3F52",
"j  c #313B5C",
"k  c #383F5B",
"l  c #1B2D64",
"z  c #1C2F6B",
"x  c #1E3166",
"c  c #1E316B",
"v  c #1D3472",
"b  c #253564",
"n  c #2C3A63",
"m  c #22356C",
"M  c #263969",
"N  c #2B3C6C",
"B  c #323E62",
"V  c #313F6B",
"C  c #213671",
"Z  c #233975",
"A  c #293C73",
"S  c #243B7B",
"D  c #243B7C",
"F  c #3F4046",
"G  c #3E414D",
"H  c #3C4255",
"J  c #35415F",
"K  c #3D445B",
"L  c #2E406E",
"P  c #364264",
"I  c #3C4563",
"U  c #33436B",
"Y  c #3E4A6B",
"T  c #2E4276",
"R  c #2B417C",
"E  c #334573",
"W  c #31457C",
"Q  c #3B4C78",
"!  c #3F507A",
"~  c #434447",
"^  c #42444C",
"/  c #4B4B4C",
"(  c #424552",
")  c #464954",
"_  c #4B4D53",
"`  c #42465A",
"'  c #444A5C",
"]  c #4A4D5B",
"[  c #4F5054",
"{  c #4E515B",
"}  c #535454",
"|  c #54555A",
" . c #57585B",
".. c #5C5C5C",
"X. c #605F5F",
"o. c #454C63",
"O. c #4C5162",
"+. c #535663",
"@. c #565963",
"#. c #5C5D62",
"$. c #565B6A",
"%. c #465379",
"&. c #535C72",
"*. c #5F6063",
"=. c #5E626B",
"-. c #5D6375",
";. c #646464",
":. c #696565",
">. c #64666A",
",. c #67686A",
"<. c #6B6B6B",
"1. c #6B6C6C",
"2. c #6F6F6F",
"3. c #706F6F",
"4. c #656A75",
"5. c #6D6E72",
"6. c #6F7072",
"7. c gray44",
"8. c #737373",
"9. c #757575",
"0. c #777777",
"q. c #757679",
"w. c #777979",
"e. c #797979",
"r. c #7A7A7A",
"t. c #7B7B7B",
"y. c #7E7E7E",
"u. c #253D82",
"i. c #283F80",
"p. c #253F8A",
"a. c #274083",
"s. c #2C4484",
"d. c #2F4887",
"f. c #25418A",
"g. c #29458C",
"h. c #2E498D",
"j. c #344A84",
"k. c #334C8B",
"l. c #3E5486",
"z. c #3B548D",
"x. c #254293",
"c. c #2A4691",
"v. c #2D4A92",
"b. c #2B4A9C",
"n. c #314D93",
"m. c #314F9A",
"M. c #365194",
"N. c #3C5593",
"B. c #35539D",
"V. c #3C599E",
"C. c #2A4BA0",
"Z. c #2E52AB",
"A. c #3454A1",
"S. c #3B5BA5",
"D. c #3154AC",
"F. c #395BA9",
"G. c #3256B3",
"H. c #3B61AF",
"J. c #3D62B2",
"K. c #3A62BC",
"L. c #425484",
"P. c #485A85",
"I. c #435B94",
"U. c #465C95",
"Y. c #4F608B",
"T. c #566688",
"R. c #4A639B",
"E. c #566C9D",
"W. c #737782",
"Q. c #415EA3",
"!. c #4764A8",
"~. c #526DAA",
"^. c #5C73A2",
"/. c #4465B5",
"(. c #4769B6",
"). c #466BBC",
"_. c #4A6EBD",
"`. c #5875B4",
"'. c #365FC4",
"]. c #3C66C6",
"[. c #3965CD",
"{. c #3D6AD5",
"}. c #496EC1",
"|. c #4A74CE",
" X c #5378CA",
".X c #4975D6",
"XX c #547DD5",
"oX c #4577E7",
"OX c #5980D1",
"+X c #5C86DB",
"@X c #6B8BCA",
"#X c #6089D9",
"$X c #6B92DD",
"%X c #5A8BEF",
"&X c #818181",
"*X c #828282",
"=X c #898989",
"-X c gray57",
";X c #93B6F4",
/* pixels */
",.7.2.7.9.,.7.7.9.r.9.9.7.7.7.7.7.7.3.7.7.2.7.2.7.2.2.;.;.;.:.2.7.,.,.7.7.<.;.1.;.;.;.,.2.2.2.;.;.;.2.2.,.,.;.;.;.;...;.;.;.;.;.",
";.,.....;.2.2.2.7.r.2.,.,.,.,.,.:.,.;.<.,.2.2.2.,.2.,.7.9.3.,.,.2.2.3.7.2.2.r.3.2.,.2.;.;.;.,.2.;.;.2...;.;.;.;.;.;.;.;...;.;.;.",
"7.;.;.;.;.2.7.&X=X7.;.;.;.;.;.,.,.;.,.7.r.9.7.2.2.9.7.,.9.,.7.3.2.,.,.7.<.,.2.,.,.7.2.2.7.2...;.;.;.;.;...,.;.;.2.2.2.,.,.7.&Xr.",
"7.7.7.7.9.2.9.,.;.;.;.,.,.9.7.9.9.9.2.,.7.7.,.2.2.7.2.,.;.;.;.;.;.,.;.;.;...;.;.;.2.,.,.2.;.;.;.;...;.,.7.9.2.r.y.9.r.r.9.7.9.7.",
"r.9.9.9.9.7.7.7.2.2.2.7.2.;.;.7.,.....,.9.9.r.r.;.;.;.,.,.,.,.;.;.2.;...;.;.2.,.;.7.r.9.r.r.9.9.9.2.2.7.7.2.2.,.;.;...;.2.9.9.2.",
"<.,.r.7.;.;.,...,.,.,.;.7.2.2.,.1.<.;.#.;.7.9.2.;.2.,.2.,.7.9.7.9.7.,...r.9.r.2.2.2.2.;.;.,.<.,.2.,.;...,.7.2.7.r.7.3.7.9.7.;.7.",
"..;.;.;.;.,.;.7.2.2.9.;.;...;...;.;.[  .} ;.;.2.2.y.r.r.7.r.r.y.9.7.;.2.&X=X9.2.;.;.;.| ..;...;.;...;.;...,.;.,.2.9.9.7.2.,.;...",
"9.2.2.;.;.;.;.2.7.,.7.;...;.;.;..... .;.....2.9.r.9.y.r.=Xy.&X&Xy.&X,.2.,.,.;.;.,.,.:.;.;.;.;...;.#..._ } <.;.7.7.5.r.9.9.y.r.,.",
"2.7.r.,.9.&X,.| ..2.9.7.;.;...| g g I E G ;.;.r.9.2.9.2.2.;.<.X.| ....;.;.;.;.....;............. .}  .w | ..<.2.;.;.9.9.y.7.7.y.",
"9.9.9.7.,.y.9...,.,.2.2.,.2.O.- z.~.z.Q.z 9  .7.7...} | [ } | | ..2.7.;.9.;.,.r.,.2. .;.;. .} ( # w % F  .|  .;.;.;.7.7.7.9.9.9.",
"2.....;...;.,.7.2.#.2.,.| .. .g 1 j.D C 9 ) ;.;.9.2...;...;.;.;.2.;.;.,.#.5.;.;.,.2.}  .q x u B.W P A i $ ^ ^ ;.;.....;.2.7.7.7.",
",.,.2.7.9.7.1.X.....;.........;.p d K ) ;.;.7... .} } } / ....} ..;. ...*.@.#.#.| 7.;.} e S h.}.A j._.S.E N X w | / ......} ;.2.",
"2.,.7.7.,.;.,.#...;.........| ;.#.....*.;.9.r.r.} / } 2.[ } ] ^ q ) ..,. .,.q.7.*.,.9.9...j A Z D g.S b o q ^ _ 7.;.2.2.;.;.;.;.",
"} ......| ....1.2.7.2.,.,.....| 2.;.,.7.r.r.=X&Xr.,.,.| 0 b N n Y Y Y h 7 t  .;.#.#.,.7.*.#.t H @ @ @ w ^ ..#...#.#.,.;.2.,.| / ",
",.,.;.7.2.,.,.;.;.,.*.;.;.;.;...,.2.2.,...;.,.&X7.9.9.5 T S.z. Xd U j + ] <.;.9.7.r.5.9.,.#...;.,.7.7.y.,.9.2.;.;.7.y.7.2.9.7.;.",
"7.9.9.7.7.9.7.;.,.;.,.;.....}  .;...} / } / & & ~ / ..~ R _.D a.u.c # | y.y.,.9.7.2.;.7.7.9.r.r.r.9.y.r.<.y.,.,.r.y.=X&X=X&X&X9.",
"2.2.,.;.;.;.;.;.,.;.;.;.<.2.r.,.9.2.2.9.9.,.;.../ ;...| B A c 2 3 | ;.,.;.,.,.r.2.;.;.;.7.9.2.7.7.7.7.#...,.,.,.2.7.2.7.2.7.7.7.",
",.2.2.,.2.<.2.<.,.;...;.....,.2.;.;.;.;.;.,.<.;.#.;.5.;...J ^ ;.,.#.7.7.<.,.,.;.;.;.2.;.../ / _ } ......7.7.1.2.2.7.7.2.2.2.,.2.",
"2.2.9.9.r.9.,.7.9.,.<.<.<.1.;.;.;...........<...#.2.7.7.7.9.r.r.9.9.7.2.2.2.;.;.;...[ ;.| ;.....| ..,.;.2.7.*.| 3.7.7.9.,.2.;.,.",
"9.9.9.2.9.9.7.3.2.2.;.*.........;.......{ ( t $.1.2.9.>.;.;.,.7.7.,.,.,...;.;...;.2.;...} ) q g h K /  .;...;.;.2.7.,...;.;.7.9.",
"2.,.,...;...;.;.,.,...;.;...........2.] = c 2 = O.+.] 4.;.;.;...;.../ / / | ;...2.2.,.} &.A y R 8 5 s G #... .;.;...2.;.....;.;.",
",.,.2.2.,.,.2.,.;.;.;.;.,.;. .[  .#.H c C C R s.< u.B g ] L.4.r.;.....7.....;.;.2.9.2.^ W D.S.Y V.Y P d { ] )  .#.,.;.;...2.7.2.",
"9.7.2.2.2.,.2.......;.<.,.>.G ] g a.u.v !._.M.s.A |.A.x ; A Y.W.y.r.,.=.;.9.;. ...-.K n u.D.Y a.g.j.P.V ^ { #.,......./ ;.r.r.9.",
"y.r.r.9.9.,.,.,.....2.7.5.r y b N D s.n.S.j.M.Q.j.(.(.A k.A N U #.,.......2.;.#.j r P L B.g.u.x C R u p ` 3 +. ...;.*.#.,.9.9.y.",
"7.7.r.r.9.,.2.,.;.2.,.*.H ! E.L.+X/.S.XXL.g.f.g./.n.Z c.R : o ( } 7.2.2.2.2.} ( g n c.c.D Z A.u.b.u.u.2 @ e >.{ ,.;...;.,.7.7.7.",
"2.2.2.;.;.} | ..;.7.#.g U ^.%.R /.B.h.s.s.D n.x Z v u.u.5 @ _ >.7.9.,...;.;.;._ ..] i n j.c c D x =   0 ) | ;.,.q.7.;.;.;.,.7.<.",
"7.,.;.7.;...} ....+.>.H : A A U T D a.C a.a.Z D l l 2 o r ` ) ..;...| ..,.} ;.;.r.y.q.*.g O 3 3 F w ] @.6.;.;.7.9.,...| ..;.,.3.",
";.,.;.;.;.7.7.;.;.<.5.7.<.g j - O H H o.d 4 O O . . @ ) =.{ ) 2.2.2.,.;.;.,.;.;.;.;.....;.,.<.>.;.;.;.....,.,.;.;.;.,.;.;.;.,...",
";./ ..;.7.y.=X9.;.2.r.=Xy.5._ ^ 5.5.=.7.,.] t G (  .;.#...;.,.7.9.r.y.&X9.9.....} ........,.;.;.7.2.r.y.r.7.7.;.....,.;...,...;.",
"2.;.,.;...;...} ....;.;.,.:.2.<.2.,.>.<.2.;. ._  ...;.:.;.;.;.9.r.9.r.9.2.,...;.2.;.7.r.&X&X=X=X&Xy.y.9.9.7.r.7.y.y.&Xr.9.7.9.2.",
"r.r.2.,.,.;...........*...;.;...;. . . . .;.2.7.;.*.;.2.,.7.9.7.;.;.,.;.,.;.7.7.y.y.r.2.2.;.,.9.,.;...,.r.y.&X;.,.y.2.9.2.y.r.r.",
"2.,.7.2.2.} ' U # / ;.;.,.9.7.;...:.;.<.,.2.2.2.2.2.2.;.,.,.2.,.,.;.;.,.;.,.3.7.2.y.2.2.;.,.;.;.2.,.7.7.r.=X&X-X&X=X7.2.r.9.9.7.",
",.7.,.;.#.T.;X$X%.x G ] ] q.6.7.7.2.7.2.2.5.7.;.;.,.7.7.9.9.w.2.,.,.;.;.;...;.....| ..;.,.;.;.;.2.9.9.7.9.9.=Xr.9.9.2.,.7.7.7.2.",
",.;.2.5.] /.S.}.XXh.M 2 - $.2.<.2.9.1.,.7.7.9.9.y.y.r.9.&X&X7.;.,.;.| ..7.| | | | ..;.;.|  . . .;.r.9.9.;.;.| ;.,.,.;.,.;.7.2.,.",
"....,.+.V.S.D a.g.Z 1 O e ;.,.| _ ....,.2.2.7.7.,.;.;.;.7.,.7.2.;.....;.,.2.;...,...% % $ % q G 0 G _ ,.;.2.7.7.r.r.y.r.2.r.2.;.",
"..;.,.y m , x y > r 9 H ;.....#.;.;...2.9.7.;.;.;.;.;.;.7.&X=X9...;.,.,.7.2.;...% 6 a I.R.l D !.z.Q K @.[ )  .;.7.7.2./ ;.;.r.;.",
"2.2.2.=.K @ _ *...#.y.,.<.#.;.} ;...#.2.7.7.2.2.2.,.2.2.;...;.....;.;.,. .5.G 7 M Z s.Q.p.f.f.m.Z.A.m b a o.>.<.;.9.,.r.&X7.,.9.",
"7.2.2.9.r.y.r.7.;.,.;.;.2.9.2...#...,.,.<.2.7.2.7.2.,.,.,.| ..| } } ] +.t 0 b c |.D.'.b.S %XXXG.U.c..Xs.b n &.7._ [ ;.r.7.9.<.r.",
"y.7.,.9.7.2.7.2.;.2.,.,.7.,.;...2.7.9.2.2.,.,.;.;.;.;.,.;.;.;.....#.$.9 5 k.v.oXZ.%XoXx.Y.W ].{.].L.U.I.M b n p )  .,.2.6.7.&X&X",
"7.9.2.9.r.9.7.r.y.r.;.;.7... .#.#.>.>.;.....;.| ..,.;...;.2.;...| ] 9 p u.D.C.oXA g.g.m.V L.x.p.{.[.E b D s.' ) ;.;.1.*.q.<.2.2.",
"7.7.y.y.r.<.,.r.r.;...^ _ <.+.P.P.l.n #._ ,.,.*.;.,.;.| ....;...;.*.K k a ` f b S.K.].v [.u.u.u.n n b W a | 1.,.;.;.9.<.9.,.,.,.",
"&Xr.y.&Xr.y.,.9.;...w } t ) 2  X+XS.S.H r ] 6.2.,.2.,.;.;.,.;.;.;.2.,.#.,.h n Z l z c D g.D l c 1 1 p O.<.7.<.2.,.7.7.2.7.r.9.y.",
"2.7.9.,.9.9.9.;. .*...;.) 0 : a.m S Z s 9 f { .. .;.} ;.;.,.2.7.9.r.9.9.9.7.5.B n r 7 r - 6 ' _ _ ..2.2.2.,.;.;.,.2.<.,.2.7.7.7.",
",.;.,.,.;.,.;.7.,.,.} [ ;.[ #.{ a a K { +. .*.;. ... ...;.7.2.2.2.2.2.2.2.2.,...;...} ;.;.;.;.;.,.,.;.#.;.,.;.7.2.9.3.,.2.,.;.;.",
"7.2.,.2.9.7.7.<.;.;.;. ...| | / } ....;.2.2.,.;.;.;.;.;.;.} | | / | | ..,.7.7.7.;.7.,.7.9.r.r.r.r.r.r.r.y.r.7.7.7.7.7.;.;.;.;.;.",
"7.2.,.9.r.y.7.,.;.;.;.} } | } ....;.*...,.,.2.2.2.;.;.;.;...;.;.*.| ..y.r.7...........;.;.,.9.7.7.7.9.9.9.7.7.9.7.2.2.2.7.2.2.9.",
";.,.;.2.;...| ....;.;.;.;.,.7.2.2.7.9.9.7.q.9.9.7.,.,.<.,.2.2.7.2.;.y.y.9.;...| ......;.;.,.*.,.<.9.9.7.7.9.2.9.9.2.;.;.;.,.;...",
"2.2.2.;.,.2.,.;.,.,.2.,.9.r.y.9.r.2.7.r.9.r.y.r.y.y.9.9.9.7.9.y.2.;.,.7...} ....G 0 ^  .;.<.;.;.;.;.2.,.;.,.,.2.2.7.2.9.9.7.7.9.",
"&X&Xy.r.9.9.9.r.r.7.9.7.7.,.:.2.2.2.7.r.r.9.9.r.r.r.7.7.7.7.,.9.2.;.;.,.[ _ q p H < 9 4 5 ] ;...;.,.;.;.2.7.7.7.7.r.r.&X&X=X=X=X",
"9.7.2.7.7.9.7.9.r.9.7.,.;.,.,.,.2.2.;.<.;...#.,.<.7.;.;.....,...} | ~  .^ t p j E.`.N.R y - ` | ,.2.2.2.2.,.;.;.;.,.7.9.9.9.9.9.",
"2.,.,.;.2.2.,.7.,.2.2.,.,.;.;...} ) } @.+... .| ..;.....;...2.2._ ] 0 o.p N Q R.@X@X~.S.J.U - a @.,.;.;.#.;...;.,.;.,.2.7.2.2.,.",
"2.2.7.9.9.9.7.2.,.;.;...[ } [ G ( g P `.n P 5.q.y.,.;.;...*.| ( h R m D J.S.M.N.I.R u W 9 ~.n B - { } | |  ...2.,.7.7.7.9.r.9.7.",
",.,.,.2.2.,.,.;.;.;...,.*.H ( g u A./.m . O.<.<.2.;.;. .] r - M B.S.s.N.).H.A.OXS./.a.D s.m b O g #.;.....#.;.;.;.2.r.9.2.,.,.2.",
",.;.;.;.;.,.;.7.,...O.U j.s.A J.u.c : = K ;.;.*.;.;. .} t 2 I S.+X).#XM.i.B.g.F.Z , Z < < 1 ' { 7.;.;... ...;.*.2.,.,.2.;.;.,.,.",
"2.2.3.7.9.9.y.r.2.#.*.O.: A 2 u.d j _ *.;.#.....;.#.;.#.K M R./.F.S.S.d.n.Z Z l - . : = o.@.;.#....... .;.,.,.<.,.;.,.9.7.2.2.2.",
"r.r.r.r.&Xr.7.2.7.r.r.9...r r H H G 5.5.5.;.#.,.,. .7.;.#.e s v.u.c v.x x ; l . p I >.5.#. .#.| ;.,.;.;.2.,.1.6.2.7.9.9.r.r.r.r.",
"............;.;.;.;.,.,.2.7.,.;.6.<.9.9.9.r.r.7.9.,.;... .t e u c , l , * - > =.5.>.=.>.;...2.7.#.;.;.,.7.9.9.7.7.2.,.;.;.......",
"2.,.,.,.,.<.7.7.9.9.w.9.9.7.2.;.r.;.;.,.r.y.r.7.9.,...*.;.;.| r : * 2 . 5 I 7.5.>.>.,.;.;.7.7.7.7.9.2.7.7.9.7.2.;.;.,.,.2.7.7.7.",
"9.7.9.9.y.y.&Xy.y.r.y.r.r.y.2.2.7.;...;.;.2.2.2.9.r.9.7.2.;.2.7.5.) ) ' 7.7.,...;.;.2.1.:.2.;.,.2.2.2.,.7.2.7.7.7.9.9.9.9.9.9.9.",
";.<.7.2.2.2.;.;.;.2.7.9.9.y.y.r.9.9.2.2.7.9.,.7.9.r.r.2.7.2.,.2.<.2.5.,.;.,.;.....;.;...,.;.;.;.,.;.;.;.;.;.,.;.;.;.;...;.;.,.2.",
";.2.;.;.;.,.7.r.r.y.y.r.r.y.&X9.9.y.9.2.2.2.7.2.7.2.2.2.7.7.2.;.,.2.,...;.........,.2.7.2.2.,.,.2.2.2.;.;.,.;.9.9.r.r.9.9.2.,.2.",
"2.9.r.r.y.&Xy.y.r.9.7.9.9.9.9.7.,.7.2.7.2.9.2.7.9.r.9.r.r.9.9.7.y.9.;.,.7.7.;.....;.;.;.;.;.,.,.......;.:.,.2.9.r.y.y.9.7.9.r.7.",
"7.7.7.7.2.2.2.,.7.2.;.;.2.9.r.r.7.2.2.7.7.9.7.7.7.7.2.2.2.9.9.y.y.r.r.9.r.7.,.....;.;.;.....;.;.;.;.2.7.3.7.7.9.9.9.9.9.7.2.7.7.",
"9.7.2.,.;.,.,.,.2.,.;.;.2.;.2.,.;.;.2.r.7.2.2.2.7.2.;.;.2.2.2.,.X...;.2.2.;.2.2.;.;.2.,.2.2.1...;.9.7.7.7.2.7.7.r.r.y.r.r.r.y.r."
};
