/* XPM */
static char *_2cfdb10db2e4601ea1d82b716202f9bUK13P4hfK8XrEPLo[] = {
/* columns rows colors chars-per-pixel */
"64 64 221 2 ",
"   c #554A3D",
".  c #6B553C",
"X  c #6A563E",
"o  c #765A39",
"O  c #4E4E4D",
"+  c #524F4C",
"@  c #54514D",
"#  c #59524A",
"$  c #545454",
"%  c #5A5652",
"&  c #5E5A55",
"*  c #5C5C5C",
"=  c #635443",
"-  c #6B5945",
";  c #61574C",
":  c #64594B",
">  c #6B5C4B",
",  c #735F4A",
"<  c #645D53",
"1  c #6A5F52",
"2  c #625E5B",
"3  c #68674B",
"4  c #74614C",
"5  c #7C664C",
"6  c #7D6949",
"7  c #666554",
"8  c #6C6154",
"9  c #63615C",
"0  c #6A645C",
"q  c #6C6B5B",
"w  c #736453",
"e  c #786653",
"r  c #796856",
"t  c #716659",
"y  c #736A5B",
"u  c #796C5C",
"i  c #7A7757",
"p  c #7C795B",
"a  c #5F6060",
"s  c #646464",
"d  c #6A6663",
"f  c #6C6A65",
"g  c #6C6C6C",
"h  c #726B63",
"j  c #796E61",
"k  c #716F6C",
"l  c #737265",
"z  c #7B7064",
"x  c #7C7B65",
"c  c #74726C",
"v  c #79746C",
"b  c #7B7A6C",
"n  c #6F7070",
"m  c #737373",
"M  c #797775",
"N  c #7B7A74",
"B  c #777979",
"V  c #7B7B7B",
"C  c #AB6315",
"Z  c #A96416",
"A  c #B16615",
"S  c #B36916",
"D  c #B96B16",
"F  c #B36A19",
"G  c #BA6E1A",
"H  c #BD711A",
"J  c #8D683F",
"K  c #C06F16",
"L  c #C3731A",
"P  c #C9761B",
"I  c #CC791C",
"U  c #D37D1D",
"Y  c #D87E1E",
"T  c #866A49",
"R  c #827E4B",
"E  c #816C54",
"W  c #877459",
"Q  c #937958",
"!  c #857563",
"~  c #887763",
"^  c #8D7A65",
"/  c #837D6C",
"(  c #927C60",
")  c #847B72",
"_  c #817E7B",
"`  c #9C953C",
"'  c #B4AB38",
"]  c #BBB438",
"[  c #D5801D",
"{  c #DA821E",
"}  c #E1861E",
"|  c #E38A1D",
" . c #EA8F1E",
".. c #E7911B",
"X. c #EE951C",
"o. c #F2951E",
"O. c #FA9E1A",
"+. c #FFA916",
"@. c #FEA31C",
"#. c #FFAB1D",
"$. c #FFB817",
"%. c #FFB419",
"&. c #FFBA1B",
"*. c #CE8A2D",
"=. c #DB8420",
"-. c #E38B22",
";. c #E58B22",
":. c #E69125",
">. c #EB9323",
",. c #ED9729",
"<. c #EF992A",
"1. c #F59720",
"2. c #F49A24",
"3. c #FB9C20",
"4. c #F39C2B",
"5. c #FFA221",
"6. c #FFAC22",
"7. c #F6A32B",
"8. c #FFA42B",
"9. c #FFAB2C",
"0. c #FFB421",
"q. c #FFBB23",
"w. c #FFB52C",
"e. c #FFBD2C",
"r. c #E4A635",
"t. c #F6A831",
"y. c #FEAD33",
"u. c #FEB434",
"i. c #FFBB34",
"p. c #FFB538",
"a. c #FFB939",
"s. c #FFC116",
"d. c #FFC71B",
"f. c #FFD51C",
"g. c #CBC135",
"h. c #FFC723",
"j. c #FFC22B",
"k. c #FFDB23",
"l. c #FFD528",
"z. c #FFC633",
"x. c #FFC33C",
"c. c #FECC3C",
"v. c #FFDA33",
"b. c #FFD639",
"n. c #FFE62D",
"m. c #FFE533",
"M. c #FFE039",
"N. c #FFF33B",
"B. c #8B8647",
"V. c #9B814F",
"C. c #9D974A",
"Z. c #888654",
"A. c #86835D",
"S. c #89865E",
"D. c #8D8A5B",
"F. c #978A59",
"G. c #989457",
"H. c #A98C55",
"J. c #A29556",
"K. c #B8AF41",
"L. c #B3AD4B",
"P. c #B5AD4D",
"I. c #A9A455",
"U. c #858363",
"Y. c #8E8A65",
"T. c #84836C",
"R. c #89876E",
"E. c #908D63",
"W. c #938E6A",
"Q. c #969469",
"!. c #99966A",
"~. c #858474",
"^. c #898771",
"/. c #8C8B75",
"(. c #84837E",
"). c #8B877D",
"_. c #8A8A7C",
"`. c #968776",
"'. c #918F71",
"]. c #9C9A74",
"[. c #94937C",
"{. c #A79A60",
"}. c #A7A369",
"|. c #A5A27D",
" X c #C69746",
".X c #D4AB46",
"XX c #FECB42",
"oX c #FFD344",
"OX c #FFD848",
"+X c #FFDA58",
"@X c #FFE745",
"#X c #FEE34C",
"$X c #FFF546",
"%X c #FDEB53",
"&X c #FFED5E",
"*X c #FFF856",
"=X c #FFFE5B",
"-X c #FFEB68",
";X c #FFFF63",
":X c #FFFF6C",
">X c #FFE672",
",X c #FFFF75",
"<X c #FFF57D",
"1X c #FDFA78",
"2X c #828282",
"3X c #838383",
"4X c #858585",
"5X c #8A8787",
"6X c #8C8B85",
"7X c #898989",
"8X c #8A8A8A",
"9X c #8D8D8C",
"0X c #938D86",
"qX c #929181",
"wX c #9D9B83",
"eX c #94928D",
"rX c #939393",
"tX c #9A9896",
"yX c #A0A0A0",
"uX c #FFF889",
"iX c #FFFFBB",
/* pixels */
"f m g m m f m m m B m m m m m m m m n m m g m g m g g d s s d g m f f m m g s g s s s f g g g s s s g g f d s s s s * s s s s s ",
"s f * * s g g g m B g f f f f f d f s g f g g g f g g m m n f d g g g m g g B n g f g d s s f g s s g * s s s s s s s s a s s s ",
"m s s s s g m 2X4Xm s s s s s f d s f n B m m m m B m g B f m g g f f m g n g f g g f g m g a s d s s s * f s s g g g g f m 2XB ",
"m m m m m g m f s s s f f m m m m m g f m m m m m V V m m f s f s f s f m g g m g g f f g s s s s * s f m B g V V M B B m m m m ",
"B m m m m m m m g g g m g s s m d * * s m B 2XB f d s g f g g d s g s s m f n f s m B m B B B m m g g m m m g f s s * s g m m g ",
"g f B m s s f * f f f s m g f f f g f f m m B g s g f g f B V V N m g s V B B g g n g g f m B m m m f s f g f g B g m B m m s m ",
"* s s s s f s m m n B s s s s s g m V 2X4XV g m m V B B m 2X/./.B c s v '.[.m k g g g a s f s g g s f s $ * * d m m g V m f s * ",
"m g f s s s d B 9XrXV g s f n n 2X9XtXyXrX4X4X2XV B V B 4X~._.6X4X(.c m M g f s m m m g g m m g g B f f n B m m B B V m 2X2XB f ",
"g m B f B 9X7X7X2XM 6X(.m m s g g g 7XqX/.wXV 4XV / M g g f g s * * f g m m g g g n m g f f f f g g m m m m m m m V V B 2Xm m V ",
"m m B m m 2XV $.f.&.O.E.U.k g s m 9X}.' e.>.V.5X/.p s 9 s k s f m B 2Xm 2Xf f B m B B m m m M m m m s f g f s m g m V V V m m m ",
"g * * s * h g.d.=XOXU f q ` y f /.g i C.j.I w s i _.m B m V m m V m V B m m f s g c f d s s s s g f s s f s f * s d s g m V m m ",
"f f g m M Q H.2.2.H G : $ 7 & 0 9 * d B.X.P w * $ * * * d s $ * * f s f v g f s f l l N m m f f d s f f s $ O $ $ * a * * $ s g ",
"g f m m f h 9 > Y F G $ $ * $ * 9 f 9 3 % > d a * * m m g g 2X7Xm s f f m N ~.c n d c m b b m f g g g m f g g g m n m g s s s d ",
"$ * * * s * # & & O $ * $ $ * * * * $ $ * s d f g d M (.g m g b m m g n f N g s g m g m B 2XV V m B B V B d f f s f f s g g $ O ",
"s s s f s f s * * s * s * s s $ * s f g * f g g f 2XB g g s n g * f g m m m m m m B B B m c v s f m 7XV V m g m m m V m g m m s ",
"g g g f s s s * f s f s * a $ s f s * * f f f s * $ * * s s c g g g g M 4XV B m m g s c S.].|.9X7X2X7X4XV V m B V V 4X2X4X2X2Xm ",
"g g f s s s s s f g f f g m 2XB m g g m V V m s $ s * * $ * f s m * * b T.x f x g s s s ].}.W./ l f f f s f s s f m g m g m m m ",
"g g g f g g g g f f f s f f g g s f g g g m B m f s m B g a f f * U.s.s.%.c 6.o.s ~.g D.p.u.9.9.E.M g g m 2 2 0 d k m g g g f g ",
"g g m m B m * s m g s s s g 4Xm s s d s s s g f g m B V B f s s * @.k.$X#.#.f.X.m T.A.<.x.x.9.c.w.-.-.m v - E J.v y h m f n s f ",
"m V V n m m f f d f s f B 2XV g m B n g g m m m f g m V g f f $ 9 d.&XuXi.2.=.I b v !.-.OXoX<X%Xy.XX<.s f w y.p.=.E 5 > 9 d m m ",
"g g g * s * s s f f d V 4X|.[.2X/.Y.W.b g f m m m f g f * B B 0 Z.h.b.c.9.-.{ F r z B :.XX;X-XOXp.x.-.s g g 4.y.=.5 T < 9 2 s s ",
"g g g g f f n B V 7X9X7XwXP.%.d.@.F.f R * s s f s * g 9 s B ~.2Xq @.;.=.=.L G F k Q ! m ;.u.4.=.-.3.3.{ 2 f U { I v g g k g m g ",
"m m n g g f m V 2XV 2XeX}.K.k.e.I F.q : s m B m * c h.d.%.p c g f G G Y f 0 0 2 : 4 e 6 >.:.[ 3. .} U L 4 0 P P u c m m m B B m ",
"V B B B m m m V V m m m U.p 4.U A < @ $ s f s & A.D.c.=Xw...s * $ f h s O O $ s s s s : 5 G L [ P C C e v f m g g B B m f m m V ",
"m m B B m B m n * s s * $ $ * * - @ d b N b S.G.G.I.#X%XU L w s * $ * s * s d g g g s s * # o A D   : y m V m f g m f g n m m m ",
"g g g f s d f g * $ * s s * a $ O f B M m g m M U.C.{ Y G G f O * s s s g n s * $ * s s s * 2 $ % f m V g m m V 4Xm g f d g m g ",
"m f s m s f s s s s s s s * * f g m m g f f f g e o I P F < $ $ * $ 2 s g $ s s m V B V V m m B g B 2Xm m g f m m g s * * s f n ",
"s f s s s m m d s f g g f g m f s f s s f g * * f 9 4 4 1 s s g s m f s s f s s s s f s f s s f m f s s s f g s s f f d s s f * ",
"s O * s m V 7Xm s g B 7X4XB 4X5XB 4X2XB B m g s * s s f f s f g m V V 2Xm B * * $ s s * s f g g 2Xm m 2XV m m f s * f s a f * s ",
"g s f s s g a $ s * s s f d g m V V B m g g s * s s s f s s s s a a s m g f a f m s g m 2X4X9XrX2XV 9X2X2XV 2XV V V 2XB m m m g ",
"B B n m m f s s s s s a * s s s s s V B g f s s s s s g g g g s * 5 0 * s 2 g g 2X2Xm f m m 2X2XN !.C.P.eX7X4Xm m 7Xm m g V B B ",
"g m V m m g s m f m f f g m m s * s s s $ $ a f g g g s d s m F.*.r. X( k B M B 2X7Xs s V V V l >.XX+Xy.].4X2XtX7X9Xm m V B B m ",
"f B m m g g g f m B 4X7X2XV 2Xm m n g s * f g s f f m n m ^.{.r.t.%X%Xi.-./ B f s s * $ m 4XI.u.-X>X,X%X6.X.H._ V B m m m B m g ",
"f f m m m m s m m m f d B V B m m V m m m m m m V V B f N Q. XXXuX:XoXc.j.5.| U.l f * @ d '.D.u.oXz.y.u.5.{ > y u g d f s m g f ",
"* s g m B m 2X2X7X4Xs B /.R.| +.!.m s f g g m m f s * * R.3.v.,XiX#XXX#X7.7.>.| | T.0 h 7X4Xg -.5.X.{ { 1.{ 5 ! W W ^ B g B g s ",
"* s s g s B m 2XtXm n ].@.0.%.u.E.[.4Xm m m s s s * s M  Xy.$X=X#Xw.y.c.j.8.w.} } E.E m 4X) j / I G ! m Y L e d s c v * m m B s ",
"g n f m g m rXrX4Xs qX6.l.b.M.x.2.Z.m 4Xm g g g d * M B .X1X<XN.6.e.XX@Xm.x.>.} 6.I W f f m g k g j c h M j r h N V m 2X4XB V m ",
"m n g m V m B ).p b 6.q.M.c.a.a.i.3 s f s s g f s l g  X#X*Xx.j.0.$X:XXXx.x.{ 1.U F j c g m B , m _ 2X) 5X7X2XM V f 9 m B 7XV B ",
"V m f m m B n 9 ' ' 6.x.OXXXu.j.:.:.l T % s $ * $ f *.c.b.u.i.1. .>.*Xx.x.=.} 3.L Z e T u v m m B M B 2X7X2X2XV 2Xm g m B 2X2X2X",
"m m g m V 7Xm s C.L.q.a.:.,.9.5.} C # ; & 1 % $ s c } v.y.9.e.-. .9.4.y.[ Y [ L L z Q `.0X^ N m ~ N B g m B m g m s g k 7XB g g ",
"m m V V V 2XB (.~.T.{ { } 1.} { U Z $ * s g g f s f  .3.5.} o.5.q.{ { q.{ G G I r T ) rXtX(.2Xg m m f m V B m g n m m m B m f f ",
"2XB V 2X^ ^ _ V ) w F I r { G I U 5 f g m f V 7Xm m m } Y :.t.4.{ Y } 1.P D I `.`.0X7XV V V V m m V B B B m n n m m m m m B m V ",
"g m m m m M M W T 8 > 8 u t w d s 9 g 2X2Xm 4XV m g g d s m =. .Y I P I P ! 6XeX7XB m m g d s s g f f g m g f f g g f f g m m m ",
"f s g g s g f z k M m u m m m V V N M ;.6.q.3.m V m m g m ) Q J G F H C G 2XrX2Xs f m m m m _ 2Xg g f m m B g m g m g f g f s s ",
"m g f g ! v B 2X4XV m m g s f g m c m 7.z.v.1.f D.R.b v s s k N - S A o N 7X2Xm s m g m m V 4X2XB V B V 2XV B V B m m s s s s s ",
"m g f m V _ V B B V 2Xg s * 7 ] ] Y.m 9.w.7.P < B.W g f f s m m g 4 r (.2XB f g g g g f f m m m m m m m m m m m m g g m m g g m ",
"s f s g s * * * * g g 2Xg f m v m Q.5.j.>.Y G % 9 0 g m m m m B M M V 4XV B f s s f s f m B m m B m m m m m g B B m f f m g s * ",
"g g g s f g f s f f g s m B V Y.^.U.6.Y U L 4 ) 8 s B 2XV B 2X7XB B B B m n f g m s s g m B g g f f f g s f f g f m g m m m m m ",
"2X2X2XV m B B B B m m m m c j E.M s Y U G E W N B * d B B B V V m m m m m g m m B B m g g g s s g g g m B m m m m B B 2X2X7X4X4X",
"m m n m m m m m B m m m g c k c f t f c T g $ m m $ * * g f m m m g n m m m B B B V g g g s f g B V 2XB m m m m s g g m m m m m ",
"g f f d g g f m m m m m m k r d 0 2 d d h m f s s s f s f g m m m m g n m g m m g g g g g m m B V V B V 4X9X2XV 4Xf f g m g g g ",
"g g m m m m m g m g k g f z j g m B g m m m m B V B B m V 2XB B m f s s m f s f g m m 2X7Xm g f N I.L.E.s B V b N 6XR.m m B m m ",
"f f g g g f f f g k T h f g m V m m m m m m m m m m g g m m B m g s g m m m m B B 9X9Xm B B 9X'.$.h.q.0.&.1.Z.C.] _.qX].m s f g ",
"f s s s s f m m m v W B B B m g g m B B m V m g g B 4X7X9XV m m m V B m V B m m c ~.N f m 7XB L.6.u.v.w.n.3.p %.3.3.l 9 s s s f ",
"g g n m m m V B m B M B B B g s m V B m g g g s s V V m g g g g m g g g m N G.>.9.t.l N B V x @.v.,.9.3.5.{ o.X.K { w 8 s f s f ",
"B B B V 2Xg m m m B m m m B g m m g B m m B B m m m g m m s f m m b x b U.K.}.7.n.2.9.0.-.= 9 =.-.{ U P Y Y I I L U , o = 2 m B ",
"* * a a a a s s f f g f f g n g m m B m B B m g g d s s s s s s l D.l N T.N N >.>.2.9.-.S % B U D P C S U G F y L C . : : & * * ",
"g f f f f g g m m B V B B V m f 2Xf s g m B m s g m m f s a s B T./.N m m g * $ I L L L L 2 * $ + o o . . > o . : > : $ s k m m ",
"m m m B V V B V V B B B B V g g m s s s s g g g m V B m g f g m m m B g f * $ O % 9 s s * * O $ 2 e 2 * * O = . + * f g m m m m ",
"s g m n g g s s s a s s f s s f g m g g m m f m B B B m m m m g m m g s T g s * s s s $ d s s s s * $ * $ * * * * * * * * s f g ",
"s g s s s f m B m m m g s s g f g m f f g g n g m g g g m m g g m m f * s * * $ $ * s g f f s s s * s s s s * g m m m m m g f g ",
"g m B B V 2X2XV V m s s f m m m f f s g g m n m m V m B m m m g m m $ s m g s * * s s s s s f f * * * s s f g m B V V m m m B m ",
"m m m m g g g f m g s s g m B B m g g m m m m m m m g g g m m V V B m m B m g * * s s s * * s s s 2 g m n m m m m m m m m m m m ",
"m m g f s f g f g f s s g d g f s s g B m g g n m g s s g g g f 2 * s g g s g g s s g f g g g * s m m m m g m m B B V B V V V B "
};
