/* XPM */
static char *a984cc97da7e494dd77ffb892a1e3ce1X4QG3cP3ds88gHyr[] = {
/* columns rows colors chars-per-pixel */
"64 64 214 2 ",
"   c #3C3C3C",
".  c #3B424B",
"X  c #3C4A59",
"o  c #3D4F65",
"O  c #3D566B",
"+  c #3B5C77",
"@  c #346379",
"#  c #454545",
"$  c #43484F",
"%  c #4C4C4C",
"&  c #434A54",
"*  c #494E54",
"=  c #434D5A",
"-  c #4C5057",
";  c #46505D",
":  c #4B535C",
">  c #545454",
",  c #52565C",
"<  c #53595E",
"1  c #5C5C5C",
"2  c #605F5F",
"3  c #445363",
"4  c #4B5562",
"5  c #4D5965",
"6  c #45566E",
"7  c #485769",
"8  c #475E6C",
"9  c #4A5B6C",
"0  c #505761",
"q  c #535A63",
"w  c #595E62",
"e  c #535D6A",
"r  c #445B73",
"t  c #4B5D73",
"y  c #465D79",
"u  c #535F70",
"i  c #5D6063",
"p  c #52616B",
"a  c #566569",
"s  c #5C636B",
"d  c #4A627A",
"f  c #496678",
"g  c #536374",
"h  c #5C6572",
"j  c #5C6B75",
"k  c #56697A",
"l  c #52717F",
"z  c #646464",
"x  c #62666C",
"c  c #65686A",
"v  c #6C6C6C",
"b  c #706F6F",
"n  c #646C73",
"m  c #696E75",
"M  c #646E7B",
"N  c #677074",
"B  c #6B7174",
"V  c #62747C",
"C  c #6B727B",
"Z  c #737373",
"A  c #747579",
"S  c #75797C",
"D  c #7B7B7B",
"F  c #2D6882",
"G  c #3D6D88",
"H  c #3B718B",
"J  c #276291",
"K  c #297495",
"L  c #37799A",
"P  c #1E7BA7",
"I  c #0E6FB8",
"U  c #2076A5",
"Y  c #227EA7",
"T  c #317EAD",
"R  c #397FB6",
"E  c #486683",
"W  c #4D7789",
"Q  c #5A7A8E",
"!  c #416F94",
"~  c #417B92",
"^  c #517E96",
"/  c #657686",
"(  c #6C7581",
")  c #727C85",
"_  c #427DAA",
"`  c #157AC3",
"'  c #1F80A4",
"]  c #1A83BB",
"[  c #1C95BA",
"{  c #3889AC",
"}  c #2290AB",
"|  c #3788B4",
" . c #388FB5",
".. c #3795B3",
"X. c #46828F",
"o. c #4C8594",
"O. c #5D8597",
"+. c #7E8083",
"@. c #788389",
"#. c #66899B",
"$. c #4285A7",
"%. c #5D88A8",
"&. c #479CB4",
"*. c #5594B3",
"=. c #6C93A6",
"-. c #45A5BB",
";. c #6EA2B0",
":. c #77A9B9",
">. c #7AB0BE",
",. c #1985C1",
"<. c #188CC0",
"1. c #1C8DCB",
"2. c #1993C0",
"3. c #0F81D8",
"4. c #1885DA",
"5. c #138CDB",
"6. c #0F99D5",
"7. c #0E94DE",
"8. c #0E9EDE",
"9. c #1393D5",
"0. c #189AD4",
"q. c #1396DB",
"w. c #129EDC",
"e. c #2E98CA",
"r. c #1DA0C5",
"t. c #0FA0DF",
"y. c #15A0DE",
"u. c #10B3DF",
"i. c #2FA3CC",
"p. c #1287E2",
"a. c #1489E5",
"s. c #0F97E1",
"d. c #0F9DE5",
"f. c #1197E1",
"g. c #1199E3",
"h. c #0FA0E0",
"j. c #0FA8E0",
"k. c #11A1E1",
"l. c #11A9E1",
"z. c #12B3E1",
"x. c #18BBE8",
"c. c #20B7E9",
"v. c #22B9EA",
"b. c #35B7EC",
"n. c #30BDED",
"m. c #38B9EE",
"M. c #4DA2C9",
"N. c #4AACCA",
"B. c #58B3D5",
"V. c #71B2CD",
"C. c #6CB3D6",
"Z. c #68B8D7",
"A. c #4BAFE0",
"S. c #49B3ED",
"D. c #4BB9EA",
"F. c #55B6E7",
"G. c #52BDED",
"H. c #5CB8EE",
"J. c #60AFEE",
"K. c #61B1EF",
"L. c #17C6E8",
"P. c #31CDEB",
"I. c #7CC2D7",
"U. c #46C7EC",
"Y. c #4BC3EC",
"T. c #5DCCED",
"R. c #40D2EF",
"E. c #56D0EF",
"W. c #4EC4F0",
"Q. c #64C9EF",
"!. c #70C9EF",
"~. c #69D7EE",
"^. c #71D0EF",
"/. c #74DAEE",
"(. c #68CFF1",
"). c #7ECEF1",
"_. c #73D9F0",
"`. c #7FDCF1",
"'. c #838383",
"]. c #8A8A8A",
"[. c #868C92",
"{. c #829299",
"}. c #929292",
"|. c #82AFBD",
" X c #90AEB2",
".X c #93BCC6",
"XX c #93C0CF",
"oX c #A9C7CF",
"OX c #A3CCD6",
"+X c #95CEEB",
"@X c #8BD2EC",
"#X c #96D4E4",
"$X c #9CCDF3",
"%X c #84D4F3",
"&X c #8DD5F1",
"*X c #82DBF2",
"=X c #93D4F2",
"-X c #98D2F3",
";X c #95DEF4",
":X c #9CDBF2",
">X c #ADD8E1",
",X c #B3D9E5",
"<X c #83E0F2",
"1X c #9AE5F3",
"2X c #A2E3F3",
"3X c #AAE6F4",
"4X c #ABE9F4",
"5X c #B3E7F5",
"6X c #BDE5F6",
"7X c #B5EBF4",
"8X c #BBE9F6",
"9X c #C3EDF6",
"0X c #CAEBF6",
"qX c #CDF2F6",
/* pixels */
"c Z v Z Z c Z Z Z D Z Z Z Z Z Z Z Z b Z Z v Z v Z v v c z z c v Z v c Z Z v z v z z z c v v v z z z v v c c z z z z 1 z z z z z ",
"z c 1 1 z v v v Z D v c c c c c c c z v c v v v c v v Z Z b c c b v b Z v v D v v c v c z z c v z z v 1 z z z z z z z z 1 z z z ",
"Z z z z z v Z '.].Z z z z z z c c z c Z D Z Z v v Z Z v A c Z b v c c Z v c v c v Z v v Z v 2 z z z z z 1 c z z v v v c c Z '.D ",
"Z Z Z Z Z v Z c z z z c c Z Z Z Z Z v c Z Z v v v Z v c c z z z z c z z z 1 z z z z 1 c z 1 z z z 1 z 1 z c v D D Z D D Z Z Z Z ",
"D Z Z Z Z Z Z Z v v v Z v z z Z c 1 1 z Z Z D D c c c v c c c z z v z > 1 1 % % # > 1 1 c c A Z Z D Z z 1 > Z 1 1 z 1 z v Z Z v ",
"v c D Z z z c 1 c c c z Z v c c c v c c b Z Z v z v c 2 1 z z z z Z c 1 D c c v v b v v 1 z A Z Z z % 1 z D D Z z > % c Z Z z Z ",
"1 z z z z c z Z b v Z z z z z z c 1 > > c v c v Z D D c Z D D D A Z z b '.].Z b v v v 1 z c % Z Z > > z Z Z Z c > 1 1 > > c z 1 ",
"Z v v z z z c b Z c Z v z v v v z x .Xi 1 D '.D D D D D '.D '.'.D '.c v c c z z Z Z b z Z z Z Z 1 1 > ; = 3 > 1 1 z Z > > +.D c ",
"v Z D c Z '.Z 1 1 c '.D v v z 1 1 #X2XA.w 1 '.].D Z Z v v z v z > 1 1 z z z z 1 z c > z 1 # 1 1 z > = ; ,.).W > z v Z 1 1 Z Z D ",
"Z Z Z Z c D D z D D D Z Z v 1 q #X(.H.G.A.g 1 ].].v z 1 1 > > % & z D c Z z c D Z Z c Z z % z Z 1 . V +Xf.f.x.X.z > > > z Z Z Z ",
"v 1 1 z 1 c v Z Z v b Z c z > i.(.J.J.,.P ~ g 1 '.].A Z z z 2 V 1X& v Z v A c z c v > > > > 1 1 a M.4.9.f.j.w.4 ; > > z 1 c Z Z ",
"c c v Z Z Z Z z c z z z z z 1 z _ U 3 X g s s c 1 z z > > % %.2X/.*.= > Z v c z c Z z v c 1 z z > 1.s.w.t.8.X o = z 1 > % % z v ",
"v c Z Z c c c z z 1 1 1 1 1 2 v > 3 s ].}.D D D 1 > 1 Z ; L <XR.G.).C.5 j D D D Z v Z c 1 > 1 c h h 6 k.l.O r / Z D z % 1 z z c ",
"> 1 1 1 z z 1 v A Z v c c z D Z v z ].].Z D '.'.'.Z z 1 3 1XP.H.G.a.b.i.* Z c z v Z v Z D z z v c M h g e y d c 1 1 > > b c > % ",
"c v z Z v c c v v Z z z z z A v Z Z b v 1 1 z Z v Z 2 , n.~.H.H.H.a.a.x.i.- z c Z D D D Z Z 1 % 1 > 1 1 1 1 1 c 1 1 D Z v Z Z z ",
"Z Z Z b v Z v z v z c z 1 1 > Z Z 1 > % > %     % > 1 > e K.f.p.4.a.l.k.g 1 z Z Z v z Z Z Z D c c z D D Z Z D D c D '.'.'.'.'.Z ",
"v v c z z z z z c v c c v Z +.Z Z v v Z Z Z c z > z 1 1 = ; 7.7.a.m.S.7 e D D D v v v z c 1 1 z Z Z Z b c v 1 1 2 Z v Z v Z Z Z ",
"c v v v v v v c c c c z c 1 z z 1 1 1 z v Z Z c c z Z c 1 1 d 0.v.e.7 1 c c c c v z 1 % % > > > > Z v v Z Z v v v Z Z v v v c v ",
"v v Z Z D Z 1 z Z v z z z 1 z z 1 1 1 z 1 > q w z c Z Z Z Z z e } 7 Z v v v c c 1 1 > c z z 1 1 % > z Z D D c 1 b Z Z Z c b z c ",
"Z Z Z b Z Z c c c c z c c z c z z 1 > > > e ,XL.s z v v z z c z % e z c z v z z 1 c % 1 1 z z z > % % z Z v c c Z Z c 1 z c Z Z ",
"v c c 1 z 1 z z c c z z z 1 z z z > 1 > = >X9Xv.S.q z z z c z 1 z 1 # % > 1 c z Z > {.7Xe 5 1 z > 1 > z Z v v c c z v z 2 1 z z ",
"v v v v v c v c c v v b v v v z 1 > & & >X4X=Xk.b.$.: > v Z D D z 1 1 D Z c v Z '.0 1XqX*X>.j g 9 1 z v c c v v v Z v v v v Z v ",
"Z Z b v b v v v v Z Z v v c z w ; & ; #X4XY.-Xg.k.m.i.; 1 Z Z Z D D D Z z % # % & O.4X&X1X_.9X-.g q 1 Z Z Z v v c c Z Z Z D D A ",
"D D D D Z Z Z Z Z v v Z z % oX9XZ.).Y.P.^.H.-Xs.p.f.k.0.& % c c z z z > > > % 1 3 E.2XY.Y.5X8X`./.>.% # # 1 c ].Z v D Z c Z Z D ",
"Z Z D D Z D Z Z Z c z z z X :X0X).G.L.*X-X=X=Xa.a.a.g.l.[ $ z Z % % % % 1 c % 9 f 9XU.Y.&X=Xs.s.8.L.1 t Z c z b v 1 > > Z Z v Z ",
"v v v c z c c v z z 1 > > , :XG.a.a.a.H.a.g.a.a.a.a.S.b.* z c > % 1 > # # z 1 7 ~.8X&X&X&Xg.a.a.k.] E ) D c z z > 1 z 1 1 c Z c ",
"Z c z Z z c 1 1 1 1 z z 1 < Q.G.a.a.a.k.f.a.a.a.a.b.b.4 h '.D > 1 z > > 1 % > &.9X-X$X-X6Xa.a.g.d.y g Z Z z % # > v z > > z c v ",
"z c z z z Z Z z z c v b 1 x B.G.p.a.p.s.6 <.S.p.b.v.5 n D D v z z z c z z c 0 ^ c.j.f.s.K.s.s.k.e.o 8 > c > % 1 1 z c c > z c 1 ",
"z % 1 z Z D ].Z c v D ].'.[.Q.%Xg.g.Y K ; y v.v.b.e c '.D c v Z A Z Z '.Z D 1 : X | t.8.p.H.k.h.r r j z v 1 Z v 2 % 1 1 > c 1 z ",
"v z c z z v z > z 1 z z c D D A x > # > M t . r.; M '.D z z c Z v c v c z c 1 v 9 7 z  .z.W.z.@ E j z c c 1 D Z D D b D Z Z Z v ",
"D D v Z Z c z z z z z i 1 Z z z D '.> D Z M q n h D Z v v n q 1 4 4 t 5 4 5 s , S ) s 1 1 ..o.f l > > 1 c D '.z c +.v Z v D D D ",
"v Z D Z Z v 1 e 8Xq 1 c c Z Z z c '.Z Z z z c '.'.D v z c * oX`.~./.U.8X(.;.#.Q v D Z C v z : a Z Z D D '.'.'.}.'.].Z v D Z Z Z ",
"c D Z Z v w q 8X8XV.s D Z '.'.Z '.Z ].D c '.'.Z c c Z Z m h 3X9X9X5X2X0X%X).K.$.w v Z Z D Z Z D Z +.+.D D D ].D Z Z b c Z Z Z v ",
"c c Z Z c e 6X8X-X).%.- v D D Z Z D '.D '.Z Z Z D D D Z C j ;X8X=XY.D.-Xa.a.s.s.w v c c v D '.D '.'.'.'.v c 1 z c c c c z Z v c ",
"1 z v c x XX8XH.-X` 3 c z Z Z Z c v 1 c v v Z Z c z z z q h 2X5XG.G.G.-Xa.a.g.k.e g C Z D D D Z Z Z A Z Z Z D A D D D D v D v z ",
"1 z z w #X6XH.H.J.! * 1 c b b b Z Z c v Z Z z z z z c z i ( ;X8XG.G.G.=Xg.a.g.k.o t ,Xc c v v v Z c v Z c c v Z D Z v % z z D z ",
"v b c c s y.a.a.a.a.5 a c z D D D D '.v Z Z v v v v v v q h 5X6X=X=XG.-XK.K.G.G.3 5X8Xv.1 > v v v v c Z v v Z D Z A c D '.Z D Z ",
"Z v v Z c s 8 r a.,.U > 1 Z 1 1 z v Z Z Z v Z v Z v v Z c z *X!.p.p.p.K.p.p.k.k.M.2X=Xk.k.& > v c c b Z D ].'.'.'.A v '.'.].D D ",
"D Z c Z Z z c 5 G P z c v 1 1 '.Z z Z c c Z c z z c c c 1 1 T.w.p.a.a.K.a.a.k.u.e.G.H.k.k.g.& > c D D D +.Z D Z D v v Z D '.'.'.",
"Z Z v Z Z D Z / l c v v z z '.'.Z z c z 1 1 1 % 1 c z 1 z > j H g.g.k.G.k.k.l.z.I 5.H.a.g.k.J % > Z c 1 c Z Z c v z c v ].D v v ",
"Z Z D D D D D D D 1 1 1 1 1 1 1 z c z c z Z v z c v z z c 1 c e g H P M.<.2.2.' I 3.p.f.g.,.5 k v ].A Z D D Z v z Z Z Z D Z c c ",
"'.D D '.+.D D D D D 1 1 Z Z v 1 > v v Z Z Z D D D Z Z z b z Z z z z z 1 1 m m 4 ` q.g.g.q.= d @.].'.D Z Z Z v v Z Z Z Z Z D Z D ",
"b Z Z Z Z A D D D '.D b Z D Z Z v v v Z '.D D '.D Z Z c z v v Z Z z z Z D Z '.Z q L l.6.; g {.'.v Z Z Z Z b v ].].D D D v Z Z Z ",
"c z c c z v c Z Z Z Z Z Z Z Z Z Z c c D D c v v c v v Z Z Z Z v v v v v Z Z c Z z ; 8 - ) {.].S A Z Z Z Z '.].].v Z v D v c z z ",
"Z v c v D Z Z v Z Z v z c z z z z c c z v Z Z Z Z Z v c c > 1 1 > 1 1 z z c c '.Z '.D Z ].+.Z Z c w a c Z '.Z '.'.Z Z z z z z z ",
"Z v c Z D D A v z z z z 1 1 1 1 z z Z c Z v v v Z b v c c z c c c z v v n OXV z v v v c B Z z w e O.~ 8 1 Z Z Z Z D v v Z v v Z ",
"z c z v z 1 1 1 1 z z z z c Z v v Z Z A Z D A A Z Z Z Z Z Z Z D Z Z z g |.3X&.1 z c 1 1 a B W A.H.K.G.Y.f Z c Z Z v z z z v z 1 ",
"v v v z c v c z c c v v Z D D Z D Z D D Z D D D D D D '.D D '.'.B 4 < :.5X0Xh.L z z 1 X. X@XG.t.-Xp.p.k.w.f c v c Z v Z Z Z Z Z ",
"'.'.D D Z A A D D Z Z Z Z Z v Z Z Z D D D D D D D D D D D v v c & 4 =.5X3XG.a.k.L v c 7X9XD.w.G.+Xp.p.4.k.K > > z D v '.'.].'.'.",
"Z Z b Z Z Z Z Z D Z Z Z v Z v Z Z Z Z Z Z v Z Z Z Z v c 1 > z 1 4 :X1X5XG.G.a.g.l. .B .XG.F.H.$X$Xp.f.g.f.H > z 1 1 > c Z Z Z Z ",
"v c c c v v c Z Z Z Z Z Z D D D c z c z v Z c z v v v 1 > 1 i - I._.5XG.G.=Xa.a.k.l...v { f.q.p.p.q.s.$.K 1 n z z z > > Z v v c ",
"v v Z Z A Z Z v Z v D '.( / M ( +.'.'.Z Z Z Z v 1 z z Z z Z 1 ^ ~.8XG.G.=X6Xp.a.a.z.u.l.Z Q $.9.7.] O p N n z z 1 z z > Z D Z Z ",
"c c c v v v v c c D C h Z.Y.Q.Z.C Z 1 1 1 Z v v 1 1 1 1 z z 1 u *.S.s.g.g.H.a.a.g.g.6.5 Z Z l ~ 8 3 g n 1 Z v z > > b v D z c v ",
"c z z z z c Z Z Z Z - , N.G.g.g.M > 1 v 1 1 2 c z 1 1 1 > > > > 3 R g.a.a.a.a.g.f.T ; * 1 z > , q 1 Z Z Z Z > > Z '.'.D z z c c ",
"v v b Z Z Z +.Z c > $ e B.g.a.+ - % % % > % > > 1 z v z z z > % - 6 | a.a.a.k.k.L ; 1 v Z c Z 1 D '.].].].'.}.'.'.Z D c c v v v ",
"D D D D ].].'.c z > % q Z.5.+ 9 z 1 z z z z z c Z v v Z D z 1 z 1 1 q { p.l.z.F ; z 1 z z 1 1 Z }.Z '.D ].].].'.D Z Z Z D D D D ",
"1 1 Z Z Z Z '.Z Z > > = ; ; 1 > c Z '.'.D v D v v c z z Z Z c z A z 1 s ..z.F = 2 2 1 > % % 1 '.Z Z Z Z Z Z Z Z Z v z 1 z 1 1 2 ",
"v c c c c v Z Z ].].'.'.'.z 1 D }.'.Z D '.'.'.z v Z Z c z z 1 1 Z Z z * - @ , '.'.D v 1 v ].].'.Z Z Z Z Z Z Z v z z c c v Z Z Z ",
"Z Z Z A D D '.+.D D D D '.'.v v D z z z z v v v Z D D Z v c Z Z 1 c v Z z 1 z z z v ].].'.].c Z v b v c Z v Z Z Z Z Z Z Z Z Z Z ",
"z v Z b v v z z z v Z Z A D D D Z D v v Z Z c Z D D D Z Z Z b v Z Z Z z c v c 1 z z c z c z z c c c z z z z c z z z z z z z c v ",
"z v z z z c Z D D D D Z D D '.Z Z D Z v v b Z v Z v v v Z Z v v Z Z v z z z z 1 z c Z Z v v c c v v v z z v z Z Z D D Z Z v c v ",
"v Z D D D '.+.D D Z Z Z Z Z Z Z c Z v Z b Z v Z Z D Z D D Z Z Z D Z c c Z Z c 1 1 z z z z z c c 1 1 1 z z c v Z D D D Z Z Z D Z ",
"Z Z Z Z v v v c Z v z z v Z D D Z v v Z Z Z Z Z Z Z v v v Z Z D D D D Z D Z c 2 1 z z z 1 1 z z z z v Z b Z Z Z Z Z Z Z Z Z Z Z ",
"Z Z v c z c v c v c z z v c v c z z v D Z v v v Z v z z v v v c 2 1 z v v z v v z z v c v v v 1 z Z Z Z Z v Z Z D D D D D D D D "
};
