/* XPM */
static char *_e863c0be8ed4848b60040dbc9820f7bFS9wyVOyZK51wYCJ[] = {
/* columns rows colors chars-per-pixel */
"64 64 205 2 ",
"   c #3C3C3C",
".  c #3C473E",
"X  c #315134",
"o  c #157C21",
"O  c #2D6F2D",
"+  c #287B29",
"@  c #2D6E33",
"#  c #38693A",
"$  c #2D7431",
"%  c #3A783B",
"&  c #3F5B45",
"*  c #3E6345",
"=  c #3E6C46",
"-  c #3C7842",
";  c #454545",
":  c #4C4C4C",
">  c #425446",
",  c #425B46",
"<  c #455449",
"1  c #4A554D",
"2  c #455B4A",
"3  c #495D4D",
"4  c #4F5650",
"5  c #4E5B51",
"6  c #545454",
"7  c #535C54",
"8  c #5C5C5C",
"9  c #605F5F",
"0  c #446245",
"q  c #446D46",
"w  c #44644A",
"e  c #49644C",
"r  c #456C4C",
"t  c #447D44",
"y  c #437548",
"u  c #4B744E",
"i  c #4D7B4D",
"p  c #567649",
"a  c #4D6452",
"s  c #476D50",
"d  c #4A6C52",
"f  c #526455",
"g  c #5A6454",
"h  c #536A55",
"j  c #566359",
"k  c #59635C",
"l  c #546B59",
"z  c #5A695C",
"x  c #457750",
"c  c #4E7455",
"v  c #4A7854",
"b  c #527154",
"n  c #53745A",
"m  c #5A765B",
"M  c #547B58",
"N  c #60615F",
"B  c #67745B",
"V  c #5F6260",
"C  c #5D6B61",
"Z  c #5D7462",
"A  c #646464",
"S  c #646B65",
"D  c #6A6C66",
"F  c #676C68",
"G  c #6C6C6C",
"H  c #706F6F",
"J  c #647366",
"K  c #657B67",
"L  c #6A736C",
"P  c #6B7B6D",
"I  c #6E7971",
"U  c #737373",
"Y  c #787575",
"T  c #757C74",
"R  c #7B7B7B",
"E  c #11841E",
"W  c #1F851F",
"Q  c #118B1D",
"!  c #1E8F1E",
"~  c #0F9918",
"^  c #109D16",
"/  c #159719",
"(  c #12931C",
")  c #149B1B",
"_  c #199A19",
"`  c #0FAE0F",
"'  c #0FB00F",
"]  c #0FA114",
"[  c #0FAB11",
"{  c #12A415",
"}  c #12AB14",
"|  c #14A219",
" . c #18A51A",
".. c #1AAC1A",
"X. c #0FB010",
"o. c #12B313",
"O. c #18B917",
"+. c #148422",
"@. c #148B21",
"#. c #198A20",
"$. c #1A9221",
"%. c #1D9A23",
"&. c #218521",
"*. c #258727",
"=. c #3B833B",
"-. c #358838",
";. c #289634",
":. c #2A9B33",
">. c #369636",
",. c #3E913E",
"<. c #3B9A3C",
"1. c #28A32A",
"2. c #2AB52C",
"3. c #38A83D",
"4. c #3BA93C",
"5. c #34BF34",
"6. c #39B739",
"7. c #3ABC3B",
"8. c #4AB417",
"9. c #62BE28",
"0. c #36C136",
"q. c #3CC43C",
"w. c #46C43A",
"e. c #64C02C",
"r. c #3E8443",
"t. c #39A341",
"y. c #3DA148",
"u. c #3FBD41",
"i. c #418143",
"p. c #468748",
"a. c #4F8D4F",
"s. c #449746",
"d. c #558456",
"f. c #549B53",
"g. c #658956",
"h. c #46B848",
"j. c #52BE44",
"k. c #4BAA50",
"l. c #57B757",
"z. c #7ABC54",
"x. c #668667",
"c. c #6C9B62",
"v. c #7B9464",
"b. c #6B8070",
"n. c #768478",
"m. c #5FAF68",
"M. c #7DA566",
"N. c #46C646",
"B. c #47C149",
"V. c #4BC64B",
"C. c #4DC94D",
"Z. c #59C543",
"A. c #59CB54",
"S. c #5DCD5E",
"D. c #7BCA49",
"F. c #76CA54",
"G. c #62CF62",
"H. c #76D276",
"J. c #7AD67A",
"K. c #7CD87C",
"L. c #81AE4E",
"P. c #87907C",
"I. c #87AA67",
"U. c #8BAB6D",
"Y. c #8EBF63",
"T. c #98BB6D",
"R. c #94B477",
"E. c #8CC648",
"W. c #8FC555",
"Q. c #8DCA52",
"!. c #95CF5F",
"~. c #8CD167",
"^. c #9BD061",
"/. c #94D26D",
"(. c #8ED573",
"). c #A3C874",
"_. c #A9D374",
"`. c #A2D47B",
"'. c #AFD87E",
"]. c #B5D777",
"[. c #B4D77C",
"{. c #7F8080",
"}. c #838383",
"|. c #8A8A8A",
" X c #839784",
".X c #929292",
"XX c #A4B389",
"oX c #8FD287",
"OX c #AAC781",
"+X c #B8CF8F",
"@X c #A7DB85",
"#X c #BBDB85",
"$X c #BEDD8E",
"%X c #B9DE91",
"&X c #BCE29E",
"*X c #B7D7A0",
"=X c #C3DE94",
"-X c #C6DF9A",
";X c #C2E097",
":X c #C3E19A",
">X c #CCE29D",
",X c #CCDFB8",
"<X c #CEE2BC",
"1X c #CFE2C2",
"2X c #D4E3C2",
/* pixels */
"F U G U U F U U U R U U U U U U U U G U U G U G U G G F A A F G U F F U U F A G A A A F G G G A A A G G F F A A A A 8 A A A A A ",
"A F 8 8 A G G G U Y G F F F F F A F A G F G G G F G G U U H F A G G G U G G R H G F G D A A F G A A G 8 A A A A A A A A 8 A A A ",
"U A A A A G U }.|.U A A A A A F F A F U R U U G G U U G U F U H G F F U G F G F F U G G U G 8 A A A A A 8 F A A G G G F F U }.R ",
"U U U U U G U F A A A F F U U U U U G F U U G G G U G F D A A A A F A A A 8 A A A A 8 F A 8 A A A 8 A 8 A F G R R U R R U U U U ",
"R U U U U U U U G G G U G A A U F 8 8 A U U R R A D A F F F F A A G A 6 8 8 : : ; 6 8 8 F F Y U U R U A 8 6 U 8 8 A 8 A G U U G ",
"F F R U A A F 8 F F F A U G F F F F F F G U U G A G F 9 8 A A A A U F 8 R F F G G G G G 8 A Y U U A : 8 A R R U A 6 : F U U A U ",
"8 A A A A F A U G G U A A A A A G 8 : 6 F G G G U R R F U R R R U H A H }.|.U G G G G 8 A F : U U 6 6 A U U U A 6 8 8 6 6 F A 8 ",
"U G F A A A F H U F U G A F G G A A T.j 8 R }.R R R R R }.R }.}.R }.F G F F A A U U H A U A U U 8 8 6 3 2 w 6 8 8 A U 6 6 {.R F ",
"G U R F U }.U 8 8 F }.R G G A 8 8 _.'.6.8 8 }.|.R U U G G A G A 6 8 8 A A A A 8 A F 6 A 8 ; 8 8 A 6 , 3 _ S.p.6 A G U 8 8 U U R ",
"U U U U F R R A R R R U U G 8 7 ).D.N.q.7.h 8 |.|.G A 8 8 6 6 : < A R F Y F F R U U F U A : A U 8 . m H.o.^ { t A 6 6 6 A U U U ",
"G 8 8 A 8 D G U U G G U F A 6 1.D.V.C._ $.t c 8 }.|.Y U A A 8 m _.< G U H U F A F G 6 6 6 6 8 8 g 3.}  .( E Q , 3 6 6 A 8 F U U ",
"F F G U U U U A F A A A A A 8 A s.&.0 & n C C F 8 A A 6 6 : f.[.W.s.& 6 U G A A F U A G F 8 A A 6  .' ) E E X = 2 A 8 6 : : A G ",
"G F U H F F F A A 8 8 8 8 8 9 G 6 2 z |..XR R R 8 6 8 U 3 r.^.e.y.m.k.a Z R R R U G U F 8 6 8 F Z Z r ) Q # s x.U R A : 8 A A F ",
"6 8 8 8 A A 8 G Y U G F F A R U G A |.|.U R }.}.}.U A 8 7 T.9.B.y.+.:.t 7 U F A G U G U R A A G F K Z n l v v F 8 8 6 6 H F 6 : ",
"F F A U G F F G G U A A A A U G U U G G 8 8 A U G U A 7 u L.N.N.h.} _ 0 l 5 A F U R R R U U 8 : 8 6 8 8 8 8 8 F 8 8 R U G U U A ",
"U U U G G U G A G A F A 8 8 : U U 8 6 : 6 :     : 6 8 6 h V.o.} ) ( #.0 z 8 A U U G A U U U R F F A R R U U R R F R }.}.}.}.}.U ",
"G G F A A A A A F G F F G U R U U G G U U U F A 6 A 8 8 , 2 ` ` ( :.<.3 l R R R G G G A F 8 8 A U U U H F F 8 8 9 U G U G U U U ",
"F G G F G G G F F F F A F 8 A A 8 8 8 A G U U F F A U F 8 8 v  .) *., 8 F F F F G A 8 : : 6 6 6 6 U G G U U G G G U U G G G F G ",
"G G U U R U 8 A U G A A A 8 A A 8 8 8 A 8 7 j j A F U U U U A j &.2 G G G G F F 8 8 6 F A A 8 8 : 6 A U R R D 8 G U U U F G A F ",
"U U U H U U F F D F A F F A F A A 8 6 6 6 l x.i.z A G F A A F A : l A F A G A A 8 F ; 6 8 A A A 6 : : A U G F G U U F 8 A D U U ",
"G F F 8 A 8 A A F F A A A 8 A A A 6 8 6 2 +X>XO.0.7 A A A F A 8 A 8 ; : 6 8 F A U 6 P.=Xl a 8 A 6 8 6 A U G G F F A G A 9 8 A A ",
"G G G G G F G F A F G H G G G A 8 6 < > +X#X(.o.2.,.5 6 F U R R A 8 8 R U F G U }.f ].2X^.I.Z n s 8 A G F F G G G U G G G G U G ",
"U U H G G G G G G U U G G F 8 7 3 > w ).#X0.J.o.} 2.1.2 8 F U U R R R U A : ; : > g.#X/.[.Q.>X<.n f 8 U U U G G F F U U U R R U ",
"R R R Y U U U U U G G U A : D >Xl.A.1.8.F.N.J.' o.{ { } 4 6 F F 9 A A 6 6 6 : 8 w D.[.0.0.=X;X!.Q.I.: ; ; 8 F }.U G R U F U U R ",
"U U R R U R U U U F A A A > `.<XS.7.| !.J.(.(.o.o.} } } % 6 A U : : : : 8 F : s i >X5.0./.(.` ] ^ o.8 c U F A H G 8 6 6 U U G U ",
"G G G F A A F G A A 8 6 6 7 `.q.o.o.| u.o.o.o.) @.@.t.2.7 A F 6 : 8 6 ; ; A 8 d E.-X/././.o.| @.E %.d.n.R A A A 6 8 A 8 8 F U F ",
"U F A U A F 8 8 8 8 A A 8 7 h.q.o.o.| ) o.o.} Q +.;.;.a Z }.R 6 8 A 6 6 8 : 6 <.>XJ.oXJ.&Xo.@.o ) x n U U A : ; 6 G A 6 6 A F G ",
"A F A A A U U A A F G G 8 C l h.o.o.o.' r _ 5.$.:.$.a J R R G A A A G A A F f p.o.^ ( ^ C.[ Q E 3.* s 6 F 6 : 8 8 A F D 6 A F 8 ",
"A : 8 A U R |.U A G R |.}. XK m ..o.&.+ 3 b u b c l A }.R F G U U U U }.U R 8 5 & >.] Q | N.^ [ x q Z A G 8 U G 9 : 8 8 6 F 8 A ",
"G A F A A G A 6 A 8 A A F R }.n.C 6 ; 6 K z k z k J }.R A A F L F F F G A V k G d d A ,.{ q.o.# p.m A F F 8 R U R R G R U U U G ",
"R R G U U F A A A A A V 8 U A A R }.6 R U K h J Z R U G F F J J J Z m M u j z j T n.C 8 8 >.i.i i 6 6 8 F R }.A F {.G U G R R R ",
"G U R U U G 8 l >Xj 8 F F U U A F }.U U A A F }.}.R G A 8 k K x.f.j.w.A.Z.g.z z S R U P G A 3 l U U R R }.}.}..X}.|.U G R U U U ",
"F R U U G k h ;X;Xl.C R U }.}.U }.U }.R F }.}.U F F U G 6 S P oX@X$X~.<X~.G.d.l k G U U R U U R U R R R R R |.R U U G F U U U G ",
"F F U U G l ;X;XJ.S.f.5 G R R U U R {.R }.U U U R R R S k J c.@X(.0.0.J.o.o.$.% k G F F G R }.R }.}.}.}.G A 8 A F F A F A U G F ",
"8 A G F S R.;XN.J._ * S A U U U F G 8 F G G G G A A A 8 k C c.=Xq.q.q.J.o.o./ ) l n P U R R R U U U Y U U U R R R R R R G R G A ",
"8 A A k `.:XN.N.V.=.< 8 S G G G U U F G U U A 8 : 6 8 A k j c.@Xq.q.q.(.o.o.^ 1.= c *XF F G G G U F G U F F G U R U G : A A R A ",
"G G F F C ..o.o.| ) 3 j F F R R R R }.G U U G G G A 6 8 6 7 R.%X(.(.q.J.C.C.q.<., $X>XO.8 6 F G G G F U G G U R U Y F R }.U R U ",
"U G G U F z e # } _ &.6 8 U 8 8 A G U U U G U G U G G U 6 : ^.A.o.o.o.C.o.o.{ -.y '.(.o.o.> 6 G F F H U R |.}.}.}.Y G }.}.|.R R ",
"R U F U U A S 3 % W A F G 8 8 }.U A U F F U F A A F F A 8 : a.` } } ..C.| ( ( + % q.N.o.o.o.> 6 F R R R R U R U R G G U R }.}.}.",
"U U G U U R U K b F G G A A }.}.U A F A 8 8 8 : 8 F A 8 A 6 h - } { } q.^ ( / + E } N.o.o.o.+ : 6 U F 8 F U U F G A F G |.R G G ",
"U U R R R R R R R 8 8 8 8 8 8 8 A F A F A U G A D G A A F 8 S l n r.W 3._ _ ! O ~ ` o.' ' _ e M G |.Y U R R U G A U U U R U F F ",
"}.R R }.R R R R R R 8 8 U U G 8 6 G G U U U R R R U U A G A U A A A A 8 8 L L 5 ] } o.o.} , u n.|.}.R U U U G G U U U U U R U R ",
"H U U U U U R R R }.R H U R U U G G G U }.R R }.R U U F A G G U U A A U R U }.U j -.o.[ 3 b  X}.G U U U U U G |.|.R R R G U U U ",
"F A F F A G F U U U U U U U U U U F F R R F G G F F G U U U U G G G G G U U F U A 3 w 5 b. X|.T U U U U U }.|.|.G U G R G F A A ",
"U G F G R U U G U U G A F A A A A F F A G U U U U U G F F 6 8 8 6 8 8 A A F F }.U }.R U |.n.U U D 8 j F U }.U }.}.U U A A A A A ",
"U G F U R R Y G A A A A 8 8 8 8 A A U F U G G G U G G F F A F F S A G G F OXB A G G G F L U N 8 h d.t 0 8 U U U U R G G U G G U ",
"A F A G A 8 8 8 8 A A A A F U G G U U Y U R Y Y U U U U U U U R U U A h U.#Xs.8 A F 8 8 g D p 7.V.C.w.7.q U F U U G A A A G A 8 ",
"G G G A F G F A F F G F U R R U R U R R U R R R R R R }.R R }.}.P a 7 M.$X1X[ =.A 9 8 t R./.q.} J.o.o.( ^ q F G F U G U U U U U ",
"}.}.R R U Y Y R R U U U U U G U U U R R R R R R R R R R R G G F > 3 v.$X#Xq.) ^ =.G S =X,X7.} q.H.o.| +.Q + 6 6 A R G }.}.|.}.}.",
"U U G U U U U U R U U U G U G U U U U U U G U U U U G F 8 6 A 8 e `.[.$Xq.q.) ) } <.L XXq.7.B.K.K.| ( Q { % 6 A 8 8 6 F U U U U ",
"G F F A G G F U U U U U U R U R F A F A G U F A G G G 8 6 8 V 5 Y.Q.$Xq.q.(.) / ^ } >.G ,.o.} } ( Q E i.+ 8 J A A A 6 6 U G G F ",
"G G U U U U U G U G R }.b.j 4 z T }.}.U U U U G 8 A A U A U 8 t E.;Xq.q.(.:X} { } } } o.U d.s.{ ~ o * f J J A A 8 A A 6 U R U U ",
"F F F G G G F F F R I C z.6.t.i.7 U 8 8 8 U G G 8 8 8 8 A A 8 n s.0.X.o.o.h.@.) { } [ a U U b i.e , b J 8 U G A 6 6 G G R A F G ",
"F A A A A F U U U U 5 7 3.q.{ _ j 6 8 G 8 8 9 F A 8 8 8 6 6 6 6 w <.o.o.o.| +.+.E -.3 < 8 A 6 6 f 8 U U U U 6 6 U }.}.R A A F F ",
"G G H U U U {.U F 6 > l k.o.o.# 1 : : : 6 : 6 6 8 A G A A A 6 : 1 s >.o.o.| Q ) -.2 8 G U F U 8 R }.|.|.|.}..X}.}.U R F F G G G ",
"R R R R |.|.}.F A 6 1 h l.} - a A 8 A A A A A F U G G U R A 8 A 8 8 h >.o.{ ( $ 3 A 8 A A 8 8 U .XU }.R |.|.|.}.R U U U R R R R ",
"8 8 U U U U }.U U 6 6 , 3 3 8 6 S U }.}.R G R G G D A A U U D A R A 8 z >.{ @ 2 8 8 8 6 : : 8 }.U U U U U U U U U G A 8 A 8 8 8 ",
"G F F F F G U U |.|.}.}.}.A 8 R .X}.U R }.}.}.A G U U A A A 8 8 U U A 1 5 # 7 }.}.R G 8 G |.|.}.U U U U U U U G A A F F G U U U ",
"U U U Y R R }.{.R R R R }.}.G G R A A A A G G G U R R U G F U U 8 F G U A 8 A A A G |.|.}.|.F U G H G F U G U U U U U U U U U U ",
"A G H G G G A A A G U U U R R R U R G G U U F U R R R U U U H G U U U A A G F 8 A A F A F A A F F D A A A A F A A A A A A A F G ",
"A G A A A F U R R R R U R R }.U U R U G G G U H U G G G U U G G U U G A A A A 8 A F U U G G F F G G G A A G A U U R R U U G F G ",
"G U R R R }.R R R U U U U U U U F U G U G U U U U R U R R U U U R U F F U U F 8 8 A A A A A F F 8 8 8 A A F G U R R R U U U R U ",
"U U U U G G G F U G A A G U R R U G G U U U U U U U G G G U U R R R R U R U F 9 8 A A A 8 8 A A A A G U G U U U U U U U U U U U ",
"U U H F A F F F G F A A G D G F A A G R U G G G U G A A G G G F 9 8 A G G A G G A A G F G G G 8 A U U U U G U U R R R R R R R R "
};
